<?xml version="1.0" encoding="UTF-8" standalone="no"?>
<!DOCTYPE svg PUBLIC "-//W3C//DTD SVG 1.1//EN"
 "http://www.w3.org/Graphics/SVG/1.1/DTD/svg11.dtd">
<!-- Generated by graphviz version 2.26.3 (20100126.1600)
 -->
<!-- Title: G Pages: 1 -->
<svg width="438pt" height="246pt"
 viewBox="0.00 0.00 438.00 246.00" xmlns="http://www.w3.org/2000/svg" xmlns:xlink="http://www.w3.org/1999/xlink">
<g id="graph1" class="graph" transform="scale(1 1) rotate(0) translate(4 242)">
<title>G</title>
<polygon fill="white" stroke="white" points="-4,5 -4,-242 435,-242 435,5 -4,5"/>
<g id="graph2" class="cluster"><title>cluster_default</title>
<polyline fill="none" stroke="none" points="340,-8 410,-8 "/>
<path fill="none" stroke="none" d="M410,-8C416,-8 422,-14 422,-20"/>
<polyline fill="none" stroke="none" points="422,-20 422,-102 "/>
<path fill="none" stroke="none" d="M422,-102C422,-108 416,-114 410,-114"/>
<polyline fill="none" stroke="none" points="410,-114 340,-114 "/>
<path fill="none" stroke="none" d="M340,-114C334,-114 328,-108 328,-102"/>
<polyline fill="none" stroke="none" points="328,-102 328,-20 "/>
<path fill="none" stroke="none" d="M328,-20C328,-14 334,-8 340,-8"/>
</g>
<g id="graph3" class="cluster"><title>cluster_toodle</title>
<polyline fill="none" stroke="gray" points="344,-122 406,-122 "/>
<path fill="none" stroke="gray" d="M406,-122C412,-122 418,-128 418,-134"/>
<polyline fill="none" stroke="gray" points="418,-134 418,-218 "/>
<path fill="none" stroke="gray" d="M418,-218C418,-224 412,-230 406,-230"/>
<polyline fill="none" stroke="gray" points="406,-230 344,-230 "/>
<path fill="none" stroke="gray" d="M344,-230C338,-230 332,-224 332,-218"/>
<polyline fill="none" stroke="gray" points="332,-218 332,-134 "/>
<path fill="none" stroke="gray" d="M332,-134C332,-128 338,-122 344,-122"/>
<text text-anchor="middle" x="375" y="-216.1" font-family="Times Roman,serif" font-size="11.00" fill="gray">toodle</text>
</g>
<g id="graph4" class="cluster"><title>cluster_toodle\core</title>
<polyline fill="none" stroke="gray" points="352,-130 398,-130 "/>
<path fill="none" stroke="gray" d="M398,-130C404,-130 410,-136 410,-142"/>
<polyline fill="none" stroke="gray" points="410,-142 410,-190 "/>
<path fill="none" stroke="gray" d="M410,-190C410,-196 404,-202 398,-202"/>
<polyline fill="none" stroke="gray" points="398,-202 352,-202 "/>
<path fill="none" stroke="gray" d="M352,-202C346,-202 340,-196 340,-190"/>
<polyline fill="none" stroke="gray" points="340,-190 340,-142 "/>
<path fill="none" stroke="gray" d="M340,-142C340,-136 346,-130 352,-130"/>
<text text-anchor="middle" x="375" y="-188.1" font-family="Times Roman,serif" font-size="11.00" fill="gray">core</text>
</g>
<!-- \\CoreTest -->
<g id="node2" class="node"><title>\\CoreTest</title>
<a xlink:href="db_tests_core_CoreTest.html" xlink:title="CoreTest" target="_parent">
<polygon fill="none" stroke="black" points="410,-106 340,-106 340,-70 410,-70 410,-106"/>
<text text-anchor="middle" x="375" y="-85.1" font-family="Courier New" font-size="11.00">CoreTest</text>
</a>
</g>
<!-- \\PHPUnit_Framework_TestCase -->
<g id="node8" class="node"><title>\\PHPUnit_Framework_TestCase</title>
<ellipse fill="none" stroke="black" cx="132" cy="-88" rx="129.988" ry="18"/>
<text text-anchor="middle" x="132" y="-82.9" font-family="Times Roman,serif" font-size="14.00" fill="gray">\PHPUnit_Framework_TestCase</text>
</g>
<!-- \\CoreTest&#45;&gt;\\PHPUnit_Framework_TestCase -->
<g id="edge5" class="edge"><title>\\CoreTest&#45;&gt;\\PHPUnit_Framework_TestCase</title>
<path fill="none" stroke="black" d="M339.405,-88C321.041,-88 297.316,-88 272.507,-88"/>
<polygon fill="none" stroke="black" points="272.201,-84.5001 262.201,-88 272.201,-91.5001 272.201,-84.5001"/>
</g>
<!-- \\CoreSuite -->
<g id="node3" class="node"><title>\\CoreSuite</title>
<a xlink:href="db_tests_core_CoreSuite.html" xlink:title="CoreSuite" target="_parent">
<polygon fill="none" stroke="black" points="413,-52 337,-52 337,-16 413,-16 413,-52"/>
<text text-anchor="middle" x="375" y="-31.1" font-family="Courier New" font-size="11.00">CoreSuite</text>
</a>
</g>
<!-- \\PHPUnit_Framework_TestSuite -->
<g id="node10" class="node"><title>\\PHPUnit_Framework_TestSuite</title>
<ellipse fill="none" stroke="black" cx="132" cy="-34" rx="130.789" ry="18"/>
<text text-anchor="middle" x="132" y="-28.9" font-family="Times Roman,serif" font-size="14.00" fill="gray">\PHPUnit_Framework_TestSuite</text>
</g>
<!-- \\CoreSuite&#45;&gt;\\PHPUnit_Framework_TestSuite -->
<g id="edge7" class="edge"><title>\\CoreSuite&#45;&gt;\\PHPUnit_Framework_TestSuite</title>
<path fill="none" stroke="black" d="M336.496,-34C318.951,-34 296.984,-34 274.009,-34"/>
<polygon fill="none" stroke="black" points="273.754,-30.5001 263.754,-34 273.754,-37.5001 273.754,-30.5001"/>
</g>
<!-- \\toodle\\core\\Core -->
<g id="node6" class="node"><title>\\toodle\\core\\Core</title>
<a xlink:href="db_core_Core.html" xlink:title="Core" target="_parent">
<polygon fill="none" stroke="black" points="402,-174 348,-174 348,-138 402,-138 402,-174"/>
<text text-anchor="middle" x="375" y="-153.1" font-family="Courier New" font-size="11.00">Core</text>
</a>
</g>
</g>
</svg>
